STARTFONT 2.1
FONT -Monotype-Century Gothic-Regular-I-Normal--14-100-100-100-P-65-iso8859-9
SIZE 10 100 100
FONTBOUNDINGBOX 19 16 -3 -3

STARTPROPERTIES 24
FOUNDRY "Monotype"
FAMILY_NAME "Century Gothic"
WEIGHT_NAME "Regular"
SLANT "I"
SETWIDTH_NAME "Normal"
ADD_STYLE_NAME ""
PIXEL_SIZE 14
POINT_SIZE 100
RESOLUTION_X 100
RESOLUTION_Y 100
SPACING "P"
AVERAGE_WIDTH 65
CHARSET_REGISTRY "iso8859"
CHARSET_ENCODING "9"
FACE_NAME "Century Gothic it ISO Latin5"
_DEC_DEVICE_FONTNAMES "PS=centurygothic-italic-lat5"
COPYRIGHT "Copyright (c) 1994 Monotype Typography Ltd."
CAP_HEIGHT 11
X_HEIGHT 8
WEIGHT 10
QUAD_WIDTH 9
DEFAULT_CHAR 160
FONT_DESCENT 3
FONT_ASCENT 13
ENDPROPERTIES

CHARS 191

STARTCHAR space
ENCODING 32
SWIDTH 277 0
DWIDTH 4 0
BBX 0 0 0 0
BITMAP
ENDCHAR

STARTCHAR exclam
ENCODING 33
SWIDTH 295 0
DWIDTH 4 0
BBX 3 10 1 0
BITMAP
20
20
20
20
40
40
40
40
00
80
ENDCHAR

STARTCHAR quotedbl
ENCODING 34
SWIDTH 309 0
DWIDTH 4 0
BBX 4 3 0 7
BITMAP
90
90
90
ENDCHAR

STARTCHAR numbersign
ENCODING 35
SWIDTH 720 0
DWIDTH 9 0
BBX 8 10 1 0
BITMAP
24
24
24
7F
24
24
FE
48
48
48
ENDCHAR

STARTCHAR dollar
ENCODING 36
SWIDTH 554 0
DWIDTH 7 0
BBX 6 13 1 -2
BITMAP
10
38
54
50
50
30
30
28
28
A8
70
20
20
ENDCHAR

STARTCHAR percent
ENCODING 37
SWIDTH 775 0
DWIDTH 10 0
BBX 9 10 1 0
BITMAP
7B00
8D00
8A00
7200
0400
0800
1780
2880
4880
4700
ENDCHAR

STARTCHAR ampersand
ENCODING 38
SWIDTH 757 0
DWIDTH 10 0
BBX 8 9 1 0
BITMAP
18
24
24
18
30
49
86
8A
71
ENDCHAR

STARTCHAR quoteright
ENCODING 39
SWIDTH 351 0
DWIDTH 5 0
BBX 2 4 1 6
BITMAP
40
40
40
80
ENDCHAR

STARTCHAR parenleft
ENCODING 40
SWIDTH 369 0
DWIDTH 5 0
BBX 3 13 2 -3
BITMAP
20
20
40
40
40
80
80
80
80
80
80
40
40
ENDCHAR

STARTCHAR parenright
ENCODING 41
SWIDTH 369 0
DWIDTH 5 0
BBX 3 13 1 -3
BITMAP
40
40
20
20
20
20
20
20
40
40
40
80
80
ENDCHAR

STARTCHAR asterisk
ENCODING 42
SWIDTH 425 0
DWIDTH 6 0
BBX 4 5 1 5
BITMAP
20
B0
60
D0
40
ENDCHAR

STARTCHAR plus
ENCODING 43
SWIDTH 606 0
DWIDTH 8 0
BBX 7 7 1 1
BITMAP
10
10
10
FE
10
10
10
ENDCHAR

STARTCHAR comma
ENCODING 44
SWIDTH 277 0
DWIDTH 4 0
BBX 2 3 1 -1
BITMAP
40
40
80
ENDCHAR

STARTCHAR minus
ENCODING 45
SWIDTH 606 0
DWIDTH 8 0
BBX 6 1 1 4
BITMAP
FC
ENDCHAR

STARTCHAR period
ENCODING 46
SWIDTH 277 0
DWIDTH 4 0
BBX 1 2 2 0
BITMAP
80
80
ENDCHAR

STARTCHAR slash
ENCODING 47
SWIDTH 437 0
DWIDTH 6 0
BBX 5 12 1 -2
BITMAP
08
08
10
10
10
20
20
40
40
40
80
80
ENDCHAR

STARTCHAR zero
ENCODING 48
SWIDTH 554 0
DWIDTH 7 0
BBX 6 10 1 0
BITMAP
18
24
44
44
84
84
88
88
90
60
ENDCHAR

STARTCHAR one
ENCODING 49
SWIDTH 554 0
DWIDTH 7 0
BBX 3 10 3 0
BITMAP
E0
20
20
40
40
40
40
80
80
80
ENDCHAR

STARTCHAR two
ENCODING 50
SWIDTH 554 0
DWIDTH 7 0
BBX 6 10 1 0
BITMAP
38
44
44
04
08
08
10
20
40
F8
ENDCHAR

STARTCHAR three
ENCODING 51
SWIDTH 554 0
DWIDTH 7 0
BBX 7 10 0 0
BITMAP
1C
22
02
02
1C
08
04
04
88
70
ENDCHAR

STARTCHAR four
ENCODING 52
SWIDTH 554 0
DWIDTH 7 0
BBX 6 10 1 0
BITMAP
04
04
0C
18
28
48
90
FC
10
10
ENDCHAR

STARTCHAR five
ENCODING 53
SWIDTH 554 0
DWIDTH 7 0
BBX 7 10 0 0
BITMAP
3E
20
20
38
44
04
04
84
88
70
ENDCHAR

STARTCHAR six
ENCODING 54
SWIDTH 554 0
DWIDTH 7 0
BBX 6 10 1 0
BITMAP
0C
10
20
40
78
84
84
84
88
70
ENDCHAR

STARTCHAR seven
ENCODING 55
SWIDTH 554 0
DWIDTH 7 0
BBX 7 10 1 0
BITMAP
7E
04
04
08
08
10
20
40
40
80
ENDCHAR

STARTCHAR eight
ENCODING 56
SWIDTH 554 0
DWIDTH 7 0
BBX 7 10 0 0
BITMAP
1C
22
42
44
38
44
84
84
88
70
ENDCHAR

STARTCHAR nine
ENCODING 57
SWIDTH 554 0
DWIDTH 7 0
BBX 6 10 1 0
BITMAP
38
44
84
84
84
78
08
10
20
C0
ENDCHAR

STARTCHAR colon
ENCODING 58
SWIDTH 277 0
DWIDTH 4 0
BBX 2 7 1 0
BITMAP
40
40
00
00
00
80
80
ENDCHAR

STARTCHAR semicolon
ENCODING 59
SWIDTH 277 0
DWIDTH 4 0
BBX 3 8 1 -1
BITMAP
20
20
00
00
00
40
40
80
ENDCHAR

STARTCHAR less
ENCODING 60
SWIDTH 606 0
DWIDTH 8 0
BBX 7 7 1 1
BITMAP
06
18
60
80
40
30
0C
ENDCHAR

STARTCHAR equal
ENCODING 61
SWIDTH 606 0
DWIDTH 8 0
BBX 6 4 1 3
BITMAP
FC
00
00
FC
ENDCHAR

STARTCHAR greater
ENCODING 62
SWIDTH 606 0
DWIDTH 8 0
BBX 7 7 1 1
BITMAP
C0
30
0C
02
04
18
60
ENDCHAR

STARTCHAR question
ENCODING 63
SWIDTH 591 0
DWIDTH 8 0
BBX 6 10 2 0
BITMAP
38
44
84
08
70
80
88
70
00
40
ENDCHAR

STARTCHAR at
ENCODING 64
SWIDTH 867 0
DWIDTH 11 0
BBX 10 10 1 0
BITMAP
1F00
2080
4A40
9640
A240
A240
9680
4B00
2080
1F00
ENDCHAR

STARTCHAR A
ENCODING 65
SWIDTH 740 0
DWIDTH 9 0
BBX 8 10 0 0
BITMAP
04
04
0C
12
12
22
3F
41
41
81
ENDCHAR

STARTCHAR B
ENCODING 66
SWIDTH 574 0
DWIDTH 7 0
BBX 7 10 0 0
BITMAP
3C
22
22
42
7C
44
44
84
88
F0
ENDCHAR

STARTCHAR C
ENCODING 67
SWIDTH 813 0
DWIDTH 11 0
BBX 10 10 1 0
BITMAP
1F00
2080
4040
4000
8000
8000
8000
8080
4100
3E00
ENDCHAR

STARTCHAR D
ENCODING 68
SWIDTH 744 0
DWIDTH 10 0
BBX 9 10 0 0
BITMAP
3E00
2100
2080
4080
4080
4080
4100
8100
8200
FC00
ENDCHAR

STARTCHAR E
ENCODING 69
SWIDTH 536 0
DWIDTH 7 0
BBX 7 10 0 0
BITMAP
3E
20
20
40
7C
40
40
80
80
FC
ENDCHAR

STARTCHAR F
ENCODING 70
SWIDTH 485 0
DWIDTH 6 0
BBX 6 10 0 0
BITMAP
3C
20
20
40
78
40
40
80
80
80
ENDCHAR

STARTCHAR G
ENCODING 71
SWIDTH 872 0
DWIDTH 11 0
BBX 9 10 1 0
BITMAP
1E00
2100
4080
4000
8000
8780
8080
8100
4200
3C00
ENDCHAR

STARTCHAR H
ENCODING 72
SWIDTH 683 0
DWIDTH 9 0
BBX 9 10 0 0
BITMAP
2080
2080
2080
4100
7F00
4100
4100
8200
8200
8200
ENDCHAR

STARTCHAR I
ENCODING 73
SWIDTH 226 0
DWIDTH 3 0
BBX 3 10 0 0
BITMAP
20
20
20
40
40
40
40
80
80
80
ENDCHAR

STARTCHAR J
ENCODING 74
SWIDTH 482 0
DWIDTH 6 0
BBX 7 10 -1 0
BITMAP
02
02
02
04
04
04
08
08
88
70
ENDCHAR

STARTCHAR K
ENCODING 75
SWIDTH 591 0
DWIDTH 8 0
BBX 8 10 0 0
BITMAP
21
22
24
48
70
48
48
84
84
82
ENDCHAR

STARTCHAR L
ENCODING 76
SWIDTH 462 0
DWIDTH 6 0
BBX 6 10 0 0
BITMAP
20
20
20
40
40
40
40
80
80
FC
ENDCHAR

STARTCHAR M
ENCODING 77
SWIDTH 919 0
DWIDTH 12 0
BBX 10 10 1 0
BITMAP
2040
20C0
20C0
5140
5140
5140
4A40
8A40
8440
8440
ENDCHAR

STARTCHAR N
ENCODING 78
SWIDTH 740 0
DWIDTH 10 0
BBX 9 10 0 0
BITMAP
2080
3080
3080
4900
4900
4900
4500
8600
8200
8200
ENDCHAR

STARTCHAR O
ENCODING 79
SWIDTH 869 0
DWIDTH 11 0
BBX 9 10 1 0
BITMAP
1E00
2100
4080
4080
8080
8080
8100
8100
4200
3C00
ENDCHAR

STARTCHAR P
ENCODING 80
SWIDTH 592 0
DWIDTH 8 0
BBX 8 10 0 0
BITMAP
3E
21
21
41
7E
40
40
80
80
80
ENDCHAR

STARTCHAR Q
ENCODING 81
SWIDTH 871 0
DWIDTH 11 0
BBX 9 10 1 0
BITMAP
1E00
2100
4080
4080
8080
8080
8900
8500
4200
3D00
ENDCHAR

STARTCHAR R
ENCODING 82
SWIDTH 607 0
DWIDTH 8 0
BBX 8 10 0 0
BITMAP
3E
21
21
41
7E
48
44
84
82
82
ENDCHAR

STARTCHAR S
ENCODING 83
SWIDTH 498 0
DWIDTH 7 0
BBX 6 10 1 0
BITMAP
38
44
40
40
20
10
08
08
88
70
ENDCHAR

STARTCHAR T
ENCODING 84
SWIDTH 426 0
DWIDTH 6 0
BBX 5 10 1 0
BITMAP
F8
20
20
20
40
40
40
80
80
80
ENDCHAR

STARTCHAR U
ENCODING 85
SWIDTH 655 0
DWIDTH 9 0
BBX 9 10 0 0
BITMAP
2080
2080
2080
4100
4100
4100
8200
8200
8400
7800
ENDCHAR

STARTCHAR V
ENCODING 86
SWIDTH 702 0
DWIDTH 9 0
BBX 8 10 1 0
BITMAP
81
82
82
84
44
48
50
50
60
40
ENDCHAR

STARTCHAR W
ENCODING 87
SWIDTH 960 0
DWIDTH 12 0
BBX 11 10 1 0
BITMAP
8420
8420
8C40
8A40
5240
5280
5280
6100
4100
4100
ENDCHAR

STARTCHAR X
ENCODING 88
SWIDTH 609 0
DWIDTH 8 0
BBX 8 10 0 0
BITMAP
41
22
22
14
18
18
28
44
44
82
ENDCHAR

STARTCHAR Y
ENCODING 89
SWIDTH 592 0
DWIDTH 8 0
BBX 7 10 1 0
BITMAP
82
42
44
28
10
10
10
20
20
20
ENDCHAR

STARTCHAR Z
ENCODING 90
SWIDTH 480 0
DWIDTH 6 0
BBX 6 10 0 0
BITMAP
7C
08
08
10
10
20
20
40
40
F8
ENDCHAR

STARTCHAR bracketleft
ENCODING 91
SWIDTH 351 0
DWIDTH 5 0
BBX 5 13 1 -3
BITMAP
18
10
10
20
20
20
20
40
40
40
80
80
C0
ENDCHAR

STARTCHAR backslash
ENCODING 92
SWIDTH 605 0
DWIDTH 8 0
BBX 7 12 1 -2
BITMAP
80
40
40
20
10
10
08
08
04
04
02
02
ENDCHAR

STARTCHAR bracketright
ENCODING 93
SWIDTH 351 0
DWIDTH 5 0
BBX 5 13 0 -3
BITMAP
18
08
08
10
10
10
20
20
20
20
40
40
C0
ENDCHAR

STARTCHAR asciicircum
ENCODING 94
SWIDTH 672 0
DWIDTH 9 0
BBX 7 7 1 3
BITMAP
10
10
28
28
44
44
82
ENDCHAR

STARTCHAR underscore
ENCODING 95
SWIDTH 500 0
DWIDTH 7 0
BBX 7 1 0 -2
BITMAP
FE
ENDCHAR

STARTCHAR quoteleft
ENCODING 96
SWIDTH 351 0
DWIDTH 5 0
BBX 2 4 3 6
BITMAP
40
80
80
80
ENDCHAR

STARTCHAR a
ENCODING 97
SWIDTH 683 0
DWIDTH 9 0
BBX 8 7 1 0
BITMAP
1D
63
41
81
82
86
7A
ENDCHAR

STARTCHAR b
ENCODING 98
SWIDTH 682 0
DWIDTH 9 0
BBX 8 10 1 0
BITMAP
20
20
20
5E
61
41
81
82
C6
B8
ENDCHAR

STARTCHAR c
ENCODING 99
SWIDTH 647 0
DWIDTH 8 0
BBX 7 7 1 0
BITMAP
1C
62
40
80
80
84
78
ENDCHAR

STARTCHAR d
ENCODING 100
SWIDTH 685 0
DWIDTH 9 0
BBX 9 10 1 0
BITMAP
0080
0080
0080
1D00
6300
4100
8200
8200
8600
7A00
ENDCHAR

STARTCHAR e
ENCODING 101
SWIDTH 650 0
DWIDTH 8 0
BBX 7 7 1 0
BITMAP
1C
62
42
FE
80
84
78
ENDCHAR

STARTCHAR f
ENCODING 102
SWIDTH 314 0
DWIDTH 4 0
BBX 5 10 1 0
BITMAP
18
20
20
F0
40
40
40
80
80
80
ENDCHAR

STARTCHAR g
ENCODING 103
SWIDTH 673 0
DWIDTH 9 0
BBX 8 10 1 -3
BITMAP
1D
63
41
81
82
86
7A
02
84
78
ENDCHAR

STARTCHAR h
ENCODING 104
SWIDTH 610 0
DWIDTH 8 0
BBX 7 10 1 0
BITMAP
20
20
20
5C
62
42
42
84
84
84
ENDCHAR

STARTCHAR i
ENCODING 105
SWIDTH 200 0
DWIDTH 3 0
BBX 3 10 1 0
BITMAP
20
00
00
40
40
40
80
80
80
80
ENDCHAR

STARTCHAR j
ENCODING 106
SWIDTH 203 0
DWIDTH 3 0
BBX 6 13 -2 -3
BITMAP
04
00
00
08
08
08
10
10
10
20
20
20
C0
ENDCHAR

STARTCHAR k
ENCODING 107
SWIDTH 502 0
DWIDTH 7 0
BBX 6 10 1 0
BITMAP
20
20
40
44
58
60
A0
90
88
84
ENDCHAR

STARTCHAR l
ENCODING 108
SWIDTH 200 0
DWIDTH 3 0
BBX 3 10 1 0
BITMAP
20
20
20
40
40
40
40
80
80
80
ENDCHAR

STARTCHAR m
ENCODING 109
SWIDTH 938 0
DWIDTH 11 0
BBX 10 7 1 0
BITMAP
5980
6640
4440
4440
8880
8880
8880
ENDCHAR

STARTCHAR n
ENCODING 110
SWIDTH 610 0
DWIDTH 8 0
BBX 7 7 1 0
BITMAP
5C
62
42
84
84
84
84
ENDCHAR

STARTCHAR o
ENCODING 111
SWIDTH 655 0
DWIDTH 9 0
BBX 8 7 1 0
BITMAP
1E
61
41
81
82
86
78
ENDCHAR

STARTCHAR p
ENCODING 112
SWIDTH 682 0
DWIDTH 9 0
BBX 9 10 0 -3
BITMAP
2F00
3080
2080
4080
4100
6300
5C00
8000
8000
8000
ENDCHAR

STARTCHAR q
ENCODING 113
SWIDTH 682 0
DWIDTH 9 0
BBX 8 10 1 -3
BITMAP
1D
63
41
82
82
86
7A
04
04
04
ENDCHAR

STARTCHAR r
ENCODING 114
SWIDTH 301 0
DWIDTH 5 0
BBX 5 7 1 0
BITMAP
58
60
40
40
80
80
80
ENDCHAR

STARTCHAR s
ENCODING 115
SWIDTH 388 0
DWIDTH 5 0
BBX 5 7 0 0
BITMAP
30
48
40
20
10
90
60
ENDCHAR

STARTCHAR t
ENCODING 116
SWIDTH 339 0
DWIDTH 4 0
BBX 4 10 1 0
BITMAP
20
20
20
F0
40
40
40
80
80
80
ENDCHAR

STARTCHAR u
ENCODING 117
SWIDTH 608 0
DWIDTH 8 0
BBX 7 7 1 0
BITMAP
42
42
42
84
84
84
78
ENDCHAR

STARTCHAR v
ENCODING 118
SWIDTH 554 0
DWIDTH 7 0
BBX 6 7 1 0
BITMAP
84
84
88
48
50
20
20
ENDCHAR

STARTCHAR w
ENCODING 119
SWIDTH 831 0
DWIDTH 11 0
BBX 11 7 1 0
BITMAP
8420
8420
4A40
4A40
5280
2100
2100
ENDCHAR

STARTCHAR x
ENCODING 120
SWIDTH 480 0
DWIDTH 6 0
BBX 6 7 0 0
BITMAP
44
48
28
30
50
48
88
ENDCHAR

STARTCHAR y
ENCODING 121
SWIDTH 536 0
DWIDTH 7 0
BBX 6 10 1 -3
BITMAP
84
84
88
48
50
20
20
20
40
40
ENDCHAR

STARTCHAR z
ENCODING 122
SWIDTH 425 0
DWIDTH 6 0
BBX 5 7 1 0
BITMAP
78
08
10
20
40
80
F0
ENDCHAR

STARTCHAR braceleft
ENCODING 123
SWIDTH 351 0
DWIDTH 5 0
BBX 4 12 1 -2
BITMAP
10
20
20
20
20
40
80
40
40
40
40
20
ENDCHAR

STARTCHAR bar
ENCODING 124
SWIDTH 672 0
DWIDTH 9 0
BBX 1 13 4 -3
BITMAP
80
80
80
80
80
80
80
80
80
80
80
80
80
ENDCHAR

STARTCHAR braceright
ENCODING 125
SWIDTH 351 0
DWIDTH 5 0
BBX 4 12 1 -2
BITMAP
40
20
20
20
20
10
20
40
40
40
40
80
ENDCHAR

STARTCHAR asciitilde
ENCODING 126
SWIDTH 606 0
DWIDTH 8 0
BBX 6 2 1 4
BITMAP
64
98
ENDCHAR

STARTCHAR space
ENCODING 160
SWIDTH 277 0
DWIDTH 4 0
BBX 0 0 0 0
BITMAP
ENDCHAR

STARTCHAR exclamdown
ENCODING 161
SWIDTH 295 0
DWIDTH 4 0
BBX 3 10 1 -3
BITMAP
20
00
40
40
40
40
80
80
80
80
ENDCHAR

STARTCHAR cent
ENCODING 162
SWIDTH 554 0
DWIDTH 8 0
BBX 7 12 1 -2
BITMAP
02
02
1C
66
48
90
90
A0
64
B8
80
80
ENDCHAR

STARTCHAR sterling
ENCODING 163
SWIDTH 554 0
DWIDTH 8 0
BBX 8 10 0 0
BITMAP
0E
11
10
08
7C
10
10
52
B2
CC
ENDCHAR

STARTCHAR currency
ENCODING 164
SWIDTH 554 0
DWIDTH 8 0
BBX 7 7 1 2
BITMAP
BA
44
82
82
82
44
BA
ENDCHAR

STARTCHAR yen
ENCODING 165
SWIDTH 554 0
DWIDTH 8 0
BBX 7 10 1 0
BITMAP
82
42
44
28
10
7E
10
FC
20
20
ENDCHAR

STARTCHAR brokenbar
ENCODING 166
SWIDTH 672 0
DWIDTH 9 0
BBX 1 13 4 -3
BITMAP
80
80
80
80
00
00
00
00
00
80
80
80
80
ENDCHAR

STARTCHAR section
ENCODING 167
SWIDTH 615 0
DWIDTH 9 0
BBX 7 13 1 -3
BITMAP
1C
22
20
10
30
48
44
24
18
10
08
88
70
ENDCHAR

STARTCHAR dieresis
ENCODING 168
SWIDTH 369 0
DWIDTH 5 0
BBX 4 1 1 10
BITMAP
90
ENDCHAR

STARTCHAR copyright
ENCODING 169
SWIDTH 747 0
DWIDTH 10 0
BBX 10 10 0 0
BITMAP
1E00
6180
4C80
9240
A040
A040
9240
4C80
6180
1E00
ENDCHAR

STARTCHAR ordfeminine
ENCODING 170
SWIDTH 369 0
DWIDTH 5 0
BBX 5 5 0 5
BITMAP
38
48
88
90
70
ENDCHAR

STARTCHAR guillemotleft
ENCODING 171
SWIDTH 425 0
DWIDTH 6 0
BBX 6 8 0 0
BITMAP
24
24
48
90
90
48
48
24
ENDCHAR

STARTCHAR logicalnot
ENCODING 172
SWIDTH 606 0
DWIDTH 8 0
BBX 7 4 1 3
BITMAP
FE
02
02
02
ENDCHAR

STARTCHAR hyphen
ENCODING 173
SWIDTH 332 0
DWIDTH 5 0
BBX 4 1 0 3
BITMAP
F0
ENDCHAR

STARTCHAR registered
ENCODING 174
SWIDTH 747 0
DWIDTH 10 0
BBX 10 10 0 0
BITMAP
1E00
6180
5C80
9240
9240
9C40
9240
5280
6180
1E00
ENDCHAR

STARTCHAR macron
ENCODING 175
SWIDTH 485 0
DWIDTH 7 0
BBX 4 1 2 9
BITMAP
F0
ENDCHAR

STARTCHAR degree
ENCODING 176
SWIDTH 400 0
DWIDTH 6 0
BBX 5 5 1 5
BITMAP
70
88
88
88
70
ENDCHAR

STARTCHAR plusminus
ENCODING 177
SWIDTH 606 0
DWIDTH 8 0
BBX 7 9 1 0
BITMAP
10
10
10
FE
10
10
10
00
FE
ENDCHAR

STARTCHAR twosuperior
ENCODING 178
SWIDTH 332 0
DWIDTH 5 0
BBX 5 5 0 5
BITMAP
30
48
10
20
F0
ENDCHAR

STARTCHAR threesuperior
ENCODING 179
SWIDTH 332 0
DWIDTH 5 0
BBX 4 5 1 5
BITMAP
60
10
20
90
60
ENDCHAR

STARTCHAR acute
ENCODING 180
SWIDTH 375 0
DWIDTH 5 0
BBX 3 2 2 9
BITMAP
60
80
ENDCHAR

STARTCHAR mu
ENCODING 181
SWIDTH 608 0
DWIDTH 9 0
BBX 8 11 1 -3
BITMAP
21
21
21
21
42
42
46
BA
80
80
80
ENDCHAR

STARTCHAR paragraph
ENCODING 182
SWIDTH 564 0
DWIDTH 8 0
BBX 6 12 1 -1
BITMAP
7C
E8
E8
E8
E8
68
28
28
28
28
28
28
ENDCHAR

STARTCHAR periodcentered
ENCODING 183
SWIDTH 277 0
DWIDTH 4 0
BBX 2 2 1 4
BITMAP
C0
C0
ENDCHAR

STARTCHAR cedilla
ENCODING 184
SWIDTH 324 0
DWIDTH 5 0
BBX 3 2 1 -2
BITMAP
20
C0
ENDCHAR

STARTCHAR onesuperior
ENCODING 185
SWIDTH 332 0
DWIDTH 5 0
BBX 2 5 1 5
BITMAP
C0
40
40
80
80
ENDCHAR

STARTCHAR ordmasculine
ENCODING 186
SWIDTH 369 0
DWIDTH 5 0
BBX 5 5 0 5
BITMAP
30
48
88
90
60
ENDCHAR

STARTCHAR guillemotright
ENCODING 187
SWIDTH 425 0
DWIDTH 6 0
BBX 6 8 0 0
BITMAP
90
48
48
24
24
48
90
90
ENDCHAR

STARTCHAR onequarter
ENCODING 188
SWIDTH 831 0
DWIDTH 12 0
BBX 10 10 1 0
BITMAP
C100
4200
4400
8400
8800
08C0
1140
2280
27C0
4080
ENDCHAR

STARTCHAR onehalf
ENCODING 189
SWIDTH 831 0
DWIDTH 12 0
BBX 10 10 1 0
BITMAP
C100
4200
4400
8400
8800
0980
1240
2080
2100
4780
ENDCHAR

STARTCHAR threequarters
ENCODING 190
SWIDTH 831 0
DWIDTH 12 0
BBX 11 10 1 0
BITMAP
6080
1100
2100
9200
6400
0460
08A0
1140
13E0
2040
ENDCHAR

STARTCHAR questiondown
ENCODING 191
SWIDTH 591 0
DWIDTH 8 0
BBX 6 11 1 -3
BITMAP
08
00
38
44
04
08
30
40
84
88
70
ENDCHAR

STARTCHAR Agrave
ENCODING 192
SWIDTH 740 0
DWIDTH 9 0
BBX 8 13 0 0
BITMAP
08
04
00
04
04
0C
12
12
22
3F
41
41
81
ENDCHAR

STARTCHAR Aacute
ENCODING 193
SWIDTH 740 0
DWIDTH 9 0
BBX 8 13 0 0
BITMAP
02
04
00
04
04
0C
12
12
22
3F
41
41
81
ENDCHAR

STARTCHAR Acircumflex
ENCODING 194
SWIDTH 740 0
DWIDTH 9 0
BBX 8 13 0 0
BITMAP
06
09
00
04
04
0C
12
12
22
3F
41
41
81
ENDCHAR

STARTCHAR Atilde
ENCODING 195
SWIDTH 740 0
DWIDTH 9 0
BBX 9 13 0 0
BITMAP
0C80
1300
0000
0400
0400
0C00
1200
1200
2200
3F00
4100
4100
8100
ENDCHAR

STARTCHAR Adieresis
ENCODING 196
SWIDTH 740 0
DWIDTH 9 0
BBX 8 12 0 0
BITMAP
09
00
04
04
0C
12
12
22
3F
41
41
81
ENDCHAR

STARTCHAR Aring
ENCODING 197
SWIDTH 740 0
DWIDTH 9 0
BBX 8 13 0 0
BITMAP
04
0A
0A
04
04
0C
12
12
22
3F
41
41
81
ENDCHAR

STARTCHAR AE
ENCODING 198
SWIDTH 992 0
DWIDTH 14 0
BBX 13 10 1 0
BITMAP
01F8
0280
0480
0900
09F0
1100
3F00
2200
4200
83F0
ENDCHAR

STARTCHAR Ccedilla
ENCODING 199
SWIDTH 813 0
DWIDTH 11 0
BBX 10 13 1 -3
BITMAP
1F00
2080
4040
4000
8000
8000
8000
8080
4100
3E00
0800
0400
1800
ENDCHAR

STARTCHAR Egrave
ENCODING 200
SWIDTH 536 0
DWIDTH 7 0
BBX 7 13 0 0
BITMAP
10
08
00
3E
20
20
40
7C
40
40
80
80
FC
ENDCHAR

STARTCHAR Eacute
ENCODING 201
SWIDTH 536 0
DWIDTH 7 0
BBX 7 13 0 0
BITMAP
04
08
00
3E
20
20
40
7C
40
40
80
80
FC
ENDCHAR

STARTCHAR Ecircumflex
ENCODING 202
SWIDTH 536 0
DWIDTH 7 0
BBX 7 13 0 0
BITMAP
0C
12
00
3E
20
20
40
7C
40
40
80
80
FC
ENDCHAR

STARTCHAR Edieresis
ENCODING 203
SWIDTH 536 0
DWIDTH 7 0
BBX 7 12 0 0
BITMAP
12
00
3E
20
20
40
7C
40
40
80
80
FC
ENDCHAR

STARTCHAR Igrave
ENCODING 204
SWIDTH 226 0
DWIDTH 3 0
BBX 3 13 0 0
BITMAP
40
20
00
20
20
20
40
40
40
40
80
80
80
ENDCHAR

STARTCHAR Iacute
ENCODING 205
SWIDTH 226 0
DWIDTH 3 0
BBX 4 13 0 0
BITMAP
10
20
00
20
20
20
40
40
40
40
80
80
80
ENDCHAR

STARTCHAR Icircumflex
ENCODING 206
SWIDTH 226 0
DWIDTH 3 0
BBX 4 13 0 0
BITMAP
20
50
00
20
20
20
40
40
40
40
80
80
80
ENDCHAR

STARTCHAR Idieresis
ENCODING 207
SWIDTH 226 0
DWIDTH 3 0
BBX 5 12 0 0
BITMAP
48
00
20
20
20
40
40
40
40
80
80
80
ENDCHAR

STARTCHAR Gbreve
ENCODING 208
SWIDTH 872 0
DWIDTH 11 0
BBX 9 13 1 0
BITMAP
1080
0F00
0000
1E00
2100
4080
4000
8000
8780
8080
8100
4200
3C00
ENDCHAR

STARTCHAR Ntilde
ENCODING 209
SWIDTH 740 0
DWIDTH 10 0
BBX 10 13 0 0
BITMAP
0640
0980
0000
2080
3080
3080
4900
4900
4900
4500
8600
8200
8200
ENDCHAR

STARTCHAR Ograve
ENCODING 210
SWIDTH 869 0
DWIDTH 11 0
BBX 9 13 1 0
BITMAP
0800
0400
0000
1E00
2100
4080
4080
8080
8080
8100
8100
4200
3C00
ENDCHAR

STARTCHAR Oacute
ENCODING 211
SWIDTH 869 0
DWIDTH 11 0
BBX 9 13 1 0
BITMAP
0200
0400
0000
1E00
2100
4080
4080
8080
8080
8100
8100
4200
3C00
ENDCHAR

STARTCHAR Ocircumflex
ENCODING 212
SWIDTH 869 0
DWIDTH 11 0
BBX 9 13 1 0
BITMAP
0600
0900
0000
1E00
2100
4080
4080
8080
8080
8100
8100
4200
3C00
ENDCHAR

STARTCHAR Otilde
ENCODING 213
SWIDTH 869 0
DWIDTH 11 0
BBX 9 13 1 0
BITMAP
0C80
1300
0000
1E00
2100
4080
4080
8080
8080
8100
8100
4200
3C00
ENDCHAR

STARTCHAR Odieresis
ENCODING 214
SWIDTH 869 0
DWIDTH 11 0
BBX 9 12 1 0
BITMAP
0900
0000
1E00
2100
4080
4080
8080
8080
8100
8100
4200
3C00
ENDCHAR

STARTCHAR multiply
ENCODING 215
SWIDTH 606 0
DWIDTH 8 0
BBX 6 5 1 2
BITMAP
84
48
30
48
84
ENDCHAR

STARTCHAR Oslash
ENCODING 216
SWIDTH 868 0
DWIDTH 11 0
BBX 9 10 1 0
BITMAP
1E80
2100
4280
4480
8880
8880
9100
A100
4200
BC00
ENDCHAR

STARTCHAR Ugrave
ENCODING 217
SWIDTH 655 0
DWIDTH 9 0
BBX 9 13 0 0
BITMAP
0800
0400
0000
2080
2080
2080
4100
4100
4100
8200
8200
8400
7800
ENDCHAR

STARTCHAR Uacute
ENCODING 218
SWIDTH 655 0
DWIDTH 9 0
BBX 9 13 0 0
BITMAP
0200
0400
0000
2080
2080
2080
4100
4100
4100
8200
8200
8400
7800
ENDCHAR

STARTCHAR Ucircumflex
ENCODING 219
SWIDTH 655 0
DWIDTH 9 0
BBX 9 13 0 0
BITMAP
0600
0900
0000
2080
2080
2080
4100
4100
4100
8200
8200
8400
7800
ENDCHAR

STARTCHAR Udieresis
ENCODING 220
SWIDTH 655 0
DWIDTH 9 0
BBX 9 12 0 0
BITMAP
0900
0000
2080
2080
2080
4100
4100
4100
8200
8200
8400
7800
ENDCHAR

STARTCHAR Idotaccent
ENCODING 221
SWIDTH 226 0
DWIDTH 3 0
BBX 4 13 0 0
BITMAP
10
20
00
20
20
20
40
40
40
40
80
80
80
ENDCHAR

STARTCHAR Scedilla
ENCODING 222
SWIDTH 498 0
DWIDTH 7 0
BBX 6 13 1 -3
BITMAP
38
44
40
40
20
10
08
08
88
70
00
20
40
ENDCHAR

STARTCHAR germandbls
ENCODING 223
SWIDTH 554 0
DWIDTH 8 0
BBX 7 11 1 0
BITMAP
1C
22
22
22
44
4C
42
42
82
84
B8
ENDCHAR

STARTCHAR agrave
ENCODING 224
SWIDTH 683 0
DWIDTH 9 0
BBX 8 10 1 0
BITMAP
10
08
00
1D
63
41
81
82
86
7A
ENDCHAR

STARTCHAR aacute
ENCODING 225
SWIDTH 683 0
DWIDTH 9 0
BBX 8 10 1 0
BITMAP
04
08
00
1D
63
41
81
82
86
7A
ENDCHAR

STARTCHAR acircumflex
ENCODING 226
SWIDTH 683 0
DWIDTH 9 0
BBX 8 10 1 0
BITMAP
0C
12
00
1D
63
41
81
82
86
7A
ENDCHAR

STARTCHAR atilde
ENCODING 227
SWIDTH 683 0
DWIDTH 9 0
BBX 9 10 1 0
BITMAP
0C80
1300
0000
1D00
6300
4100
8100
8200
8600
7A00
ENDCHAR

STARTCHAR adieresis
ENCODING 228
SWIDTH 683 0
DWIDTH 9 0
BBX 8 9 1 0
BITMAP
12
00
1D
63
41
81
82
86
7A
ENDCHAR

STARTCHAR aring
ENCODING 229
SWIDTH 683 0
DWIDTH 9 0
BBX 8 11 1 0
BITMAP
04
0A
0A
04
1D
63
41
81
82
86
7A
ENDCHAR

STARTCHAR ae
ENCODING 230
SWIDTH 1157 0
DWIDTH 15 0
BBX 14 7 1 0
BITMAP
1D78
6384
4104
81FC
8200
8708
7AF0
ENDCHAR

STARTCHAR ccedilla
ENCODING 231
SWIDTH 647 0
DWIDTH 8 0
BBX 7 10 1 -3
BITMAP
1C
62
40
80
80
84
78
10
08
30
ENDCHAR

STARTCHAR egrave
ENCODING 232
SWIDTH 650 0
DWIDTH 8 0
BBX 7 10 1 0
BITMAP
10
08
00
1C
62
42
FE
80
84
78
ENDCHAR

STARTCHAR eacute
ENCODING 233
SWIDTH 650 0
DWIDTH 8 0
BBX 7 10 1 0
BITMAP
04
08
00
1C
62
42
FE
80
84
78
ENDCHAR

STARTCHAR ecircumflex
ENCODING 234
SWIDTH 650 0
DWIDTH 8 0
BBX 7 10 1 0
BITMAP
0C
12
00
1C
62
42
FE
80
84
78
ENDCHAR

STARTCHAR edieresis
ENCODING 235
SWIDTH 650 0
DWIDTH 8 0
BBX 7 9 1 0
BITMAP
12
00
1C
62
42
FE
80
84
78
ENDCHAR

STARTCHAR igrave
ENCODING 236
SWIDTH 200 0
DWIDTH 3 0
BBX 3 10 1 0
BITMAP
20
40
00
40
40
40
80
80
80
80
ENDCHAR

STARTCHAR iacute
ENCODING 237
SWIDTH 200 0
DWIDTH 3 0
BBX 3 10 1 0
BITMAP
20
40
00
40
40
40
80
80
80
80
ENDCHAR

STARTCHAR icircumflex
ENCODING 238
SWIDTH 200 0
DWIDTH 3 0
BBX 4 10 1 0
BITMAP
60
90
00
40
40
40
80
80
80
80
ENDCHAR

STARTCHAR idieresis
ENCODING 239
SWIDTH 200 0
DWIDTH 3 0
BBX 4 9 1 0
BITMAP
90
00
40
40
40
80
80
80
80
ENDCHAR

STARTCHAR gbreve
ENCODING 240
SWIDTH 673 0
DWIDTH 9 0
BBX 8 13 1 -3
BITMAP
11
0E
00
1D
63
41
81
82
86
7A
02
84
78
ENDCHAR

STARTCHAR ntilde
ENCODING 241
SWIDTH 610 0
DWIDTH 8 0
BBX 8 10 1 0
BITMAP
19
26
00
5C
62
42
84
84
84
84
ENDCHAR

STARTCHAR ograve
ENCODING 242
SWIDTH 655 0
DWIDTH 9 0
BBX 8 10 1 0
BITMAP
08
04
00
1E
61
41
81
82
86
78
ENDCHAR

STARTCHAR oacute
ENCODING 243
SWIDTH 655 0
DWIDTH 9 0
BBX 8 10 1 0
BITMAP
02
04
00
1E
61
41
81
82
86
78
ENDCHAR

STARTCHAR ocircumflex
ENCODING 244
SWIDTH 655 0
DWIDTH 9 0
BBX 8 10 1 0
BITMAP
0C
12
00
1E
61
41
81
82
86
78
ENDCHAR

STARTCHAR otilde
ENCODING 245
SWIDTH 655 0
DWIDTH 9 0
BBX 9 10 1 0
BITMAP
0C80
1300
0000
1E00
6100
4100
8100
8200
8600
7800
ENDCHAR

STARTCHAR odieresis
ENCODING 246
SWIDTH 655 0
DWIDTH 9 0
BBX 8 9 1 0
BITMAP
12
00
1E
61
41
81
82
86
78
ENDCHAR

STARTCHAR divide
ENCODING 247
SWIDTH 606 0
DWIDTH 8 0
BBX 7 5 1 3
BITMAP
10
00
FE
00
10
ENDCHAR

STARTCHAR oslash
ENCODING 248
SWIDTH 653 0
DWIDTH 9 0
BBX 8 7 1 0
BITMAP
1F
63
45
99
A2
C6
F8
ENDCHAR

STARTCHAR ugrave
ENCODING 249
SWIDTH 608 0
DWIDTH 8 0
BBX 7 10 1 0
BITMAP
10
08
00
42
42
42
84
84
84
78
ENDCHAR

STARTCHAR uacute
ENCODING 250
SWIDTH 608 0
DWIDTH 8 0
BBX 7 10 1 0
BITMAP
04
08
00
42
42
42
84
84
84
78
ENDCHAR

STARTCHAR ucircumflex
ENCODING 251
SWIDTH 608 0
DWIDTH 8 0
BBX 7 10 1 0
BITMAP
0C
12
00
42
42
42
84
84
84
78
ENDCHAR

STARTCHAR udieresis
ENCODING 252
SWIDTH 608 0
DWIDTH 8 0
BBX 7 9 1 0
BITMAP
24
00
42
42
42
84
84
84
78
ENDCHAR

STARTCHAR dotlessi
ENCODING 253
SWIDTH 200 0
DWIDTH 3 0
BBX 2 7 1 0
BITMAP
40
40
40
80
80
80
80
ENDCHAR

STARTCHAR scedilla
ENCODING 254
SWIDTH 388 0
DWIDTH 5 0
BBX 5 10 0 -3
BITMAP
30
48
40
20
10
90
60
00
40
80
ENDCHAR

STARTCHAR ydieresis
ENCODING 255
SWIDTH 536 0
DWIDTH 7 0
BBX 6 12 1 -3
BITMAP
44
00
84
84
88
48
50
20
20
20
40
40
ENDCHAR
ENDFONT
